<svg xmlns="http://www.w3.org/2000/svg" height="108.88" width="345.973"><path d="M49.34 108.88C27.518 95.903 0 77.043 0 43.74V8.578C10.066 4.77 25.618.004 49.339.004c23.992 0 40.46 5.188 49.34 8.573V43.74c0 33.583-28.585 52.936-49.339 65.139" fill="#fff"/><path d="M31.177 92.235c5.824 4.546 12.062 8.567 18.166 12.214.055-5.487-.122-8.721 3.593-12.606 1.504-1.573 3.051-3.174 4.452-4.625 1.054-1.092 1.908-1.907 2.406-1.907.356 0 .515.187.515.664 0 .49.218 2.29 1.334 4.443 1.388 2.677 3.438 3.022 4.094 3.173 15.902-11.97 29.2-27.638 29.2-49.928V11.177c-3.92-1.332-20.031-7.511-45.599-7.511-25.567 0-41.677 6.179-45.598 7.511v32.486c0 9.797 2.57 18.315 6.8 25.802.423-4.513 3.475-6.652 3.475-11.086 0-3.094-.875-5.047-.875-7.637 0-4.683 6.322-14.317 9.601-18.242.096-.115.31-.39.573-.39.235 0 .413.164.557.384.333.511.477.782.834.782.36 0 .499-.201.499-.52 0-.817-.944-2.177-.944-7.5 0-3.721.865-4.51 3.18-6.775.423-.415 1.716-1.658 2.952-1.658 1.373 0 2.054.812 2.9 1.673 1.43 1.454 3.425 4.031 3.747 4.439.09.115.172.22.368.22.661 0 1.213-.2 4.086-.2 5.22 0 13.086.82 17.128 2.144 2.082.681 2.516 1.15 3.068 1.15.27 0 .293-.176.293-.316 0-.264-.549-.687-.549-1.045 0-.238.193-.413.385-.516 3.014-1.619 5.59-2.843 7.944-2.843 1.371 0 2.048 1.187 2.625 2.361.45.915.934 2.145.934 3.407 0 3.192-1.22 5.138-2.192 6.503a35.812 35.812 0 011.527 1.682c.715.854 1.574 1.97 1.574 3.129 0 .5-.244 1.287-.383 1.91-.063.28-.308.84-.795.831-.438-.008-.552-.488-.57-.912-.003-.087 0-.28 0-.32 0-.92-.253-2.167-1.107-3.04-.982-1.004-1.88-1.733-3.017-1.733h-.39c-1.865 0-2.714.815-3.226 1.314-.56.546-.995 1.276-.995 2.259 0 .563.383 1.23.894 2.252.302.603 1.076 2.04 1.498 2.778.368.645.841.871 1.37.871 1.299 0 2.432-.18 2.432-.57 0-.107-.058-.197-.235-.197-.075 0-.255.022-.415.022-1.698 0-2.606-2.16-3.456-4.12.649-.631 1.383-1.28 2.714-1.28 1.69 0 2.8 1.135 2.8 2.612 0 .734-.226 1.347-.358 1.622-.067.14-.104.225-.104.305 0 .23.293.278.755.384.164.038.478.112.668.167a1.974 1.974 0 011.249 1.173c.149.398.488 1.313.562 1.534.28.837.731 2.053.731 3.513 0 1.485-.101 1.934-.51 3.442-.521 1.928-.75 2.66-.836 3.72.179.333.195.425.276.618.29.613.67 1.734.67 2.947v.999c0 1.933-.77 3.437-1.606 4.564-.65.877-1.58 2.113-2.114 2.798-.347.415-.813.715-1.334.715-.247 0-.54-.083-.833-.157l-1.311-.33c-1.137-.288-1.557-1.03-1.924-2.03-.055-.15-.227-.574-.28-.71-.272-.696-.425-1.142-.857-1.142-.322 0-.631.211-.952.694-1.135 1.708-1.752 2.328-3.75 2.82-.699.172-2.116.467-2.91.643-1.196.266-3.333.827-4.537.827-.255 0-.525-.016-.8-.046-1.64-.231-2.805-.34-4.85-2.78-2.81-3.353-2.52-3.826-2.688-8.355-.02-.506-.185-1.137-.71-1.137-.47 0-.675.962-.847 2.323-.202 1.598-.57 3.258-1.356 3.258-.55 0-.919-.084-1.765-.36-1.022-.332-3.566-1.192-4.905-1.634-1.82-.602-3.565-1.08-4.268-2.694-.33-.76-.94-2.173-1.25-2.907-.219-.517-.378-.787-.718-.787-.484 0-.592.575-.646 1.03-.061.513-.192 1.7-.256 2.44-.273 3.155-.904 4.497-2.24 6.257-.611.807-1.193 1.628-1.87 2.526-1.4 1.855-2.243 3.754-2.198 7.35.003.233-.015 1.572 0 2.19.125 5.35 1.481 7.972 10.5 15.157zm32.3-16.394c-.423.104-1.252.309-4.947.309-5.598 0-6.548-1.375-6.548-2.466 0-1.822 8.027-3.107 11.191-3.107 3.03 0 4.37.974 4.37 1.715 0 .86-1.367 2.897-4.066 3.549zM52.638 41.257c0-1.289-1.451-3.179-3.981-3.179-2.25 0-3.969 1.698-4.418 3.025.539 1.044 1.058 2.145 3.216 2.799.286.087.571.094.571.337 0 .346-.365.52-1.133.52-2.446 0-3.899-1-4.545-1.844-.632.088-1.364.334-2.279.367-.747.027-1.089-.472-1.089-1.14 0-.43.128-.904.384-1.43.141-.291.292-.592.402-.807.38-.743.96-2.398 3.192-3.67.26-.148.935-.557 1.28-.76 1.264-.742 2.22-.918 3.722-.918h1.101c1.802 0 2.723.506 3.517 1.174 1.613 1.357 2.501 2.096 2.501 3.103 0 1.12-.06 1.976-.954 3.156-.768 1.007-1.892 1.676-2.618 1.676-.205 0-.265-.11-.265-.226 0-.153.17-.23.345-.371.595-.483.863-1.337 1.051-1.812zM30.11 34.04c.556 0 .979-.368 1.817-1.294 1.875-2.073 3.686-2.35 3.686-3.236 0-.395-.253-.782-.517-1.194-1.999-3.123-2.852-4.81-4.042-7.076-.432-.82-.994-1.383-1.422-1.383-.691 0-1.421.807-1.843 1.498-.596.975-1.191 2.074-1.191 3.073 0 1.51.371 4.266.998 6.03.679 1.907 1.662 3.582 2.514 3.582zm36.25-4.106c-.09-.052-.41-.168-.41-.484 0-.365.265-.743.802-1.462 1.235-1.657 2.933-3.688 3.555-3.688.303 0 .492.209.868.92.222.421.414 1.125.414 1.794 0 2.203-.76 3.75-1.936 5.499-.587-.563-1.678-1.654-3.293-2.58zm-2.176 33.409c0-.747.613-1.906.613-2.941 0-1.231-1.509-1.623-2.681-1.786-2.467-.341-3.29-.23-3.29-.773 0-.377.332-.77.781-1.416.664-.953 2.244-1.313 3.085-1.429 1.108-.152 2.335-.3 3.805-.3 1.647 0 3.047.246 3.69.358 1.512.263 1.747.896 1.747 1.605v.71c0 .714-.585 1.082-1.64 1.312-.264.057-.634.124-.81.161-.766.159-1.713.31-2.048 1.276-.721 2.074-1.975 3.7-2.903 3.658-.17-.007-.35-.137-.35-.435" fill="#263e7e"/><path d="M59.555 90.717c.13-1.416.754-3.778.754-4.742 0-.477-.159-.664-.515-.664-.498 0-1.352.815-2.406 1.907-1.4 1.45-2.948 3.052-4.452 4.625-3.715 3.885-3.538 7.119-3.593 12.606 4.128-2.488 7.903-4.88 10.698-6.787-.414-2.286-.761-3.926-.486-6.945zm-38.878-13.64c-.015-.617.003-1.956 0-2.19-.045-3.595.798-5.494 2.198-7.35.677-.897 1.259-1.718 1.87-2.525 1.336-1.76 1.967-3.102 2.24-6.257.064-.74.195-1.927.256-2.44.054-.455.162-1.03.646-1.03.34 0 .5.27.718.787.31.734.92 2.148 1.25 2.907.703 1.615 2.448 2.092 4.268 2.694 1.339.442 3.883 1.302 4.905 1.634.846.276 1.215.36 1.765.36.786 0 1.154-1.66 1.356-3.258.172-1.361.376-2.323.847-2.323.525 0 .69.63.71 1.137.169 4.529-.121 5.002 2.689 8.355 2.044 2.44 3.209 2.549 4.849 2.78-.61-.183-1.392-.887-1.392-2.37V66.36c0-.814.097-1.643.5-2.58.19-.441.413-1.237.623-1.725.357-.83.186-1.04.186-1.626 0-.618-.204-1.23-.692-2.712-.25-.761-.59-1.868-.917-2.778-1.018-2.841-1.43-3.51-4.827-3.961-1.092-.144-5.859-.82-6.856-.962-3.813-.54-6.799-.722-8.353-3.277-1.856-3.051-1.67-6.772-3.454-6.772-.847 0-1.296.948-1.296 2.33 0 1.452.549 3.8.549 7.887 0 3.534-.33 4.52-2.39 7.12-.534.676-1.253 1.67-1.713 2.247-1.533 1.924-2.211 3.008-2.118 5.25.24 5.802 1.16 10.065 1.583 12.276zM61.608 52.51c.15.373.275.797.275 1.113 0 .712-.176.93-.568 1.35-.235.21-.496.43-.734.652-.39.204-.74.466-.974.803-.45.646-.781 1.039-.781 1.416 0 .117.039.204.123.271-.544-.403-.762-1.026-.762-1.581 0-.497.162-.76.162-1.227 0-.396-.112-.783-.178-1.007-.761-2.546-2.042-5.574-2.831-7.633-.805-2.098-1.437-3.248-2.346-3.248-.505 0-.955.248-1.486.248.726 0 1.85-.67 2.617-1.676.894-1.18.954-2.037.954-3.156 0-.474-.197-.889-.573-1.336 1.151 1.173 1.888 2.667 2.669 4.32 1.709 3.625 3.19 7.594 4.433 10.691zm11.95-7.57c.15.398.489 1.313.563 1.534.28.836.731 2.053.731 3.513 0 1.485-.101 1.934-.51 3.442-.521 1.928-.75 2.66-.836 3.72-.146-.3-2.89-5.034-3.099-5.42-.21-.384-.384-.758-.384-1.203 0-.484.207-.775.792-1.143.351-.22.806-.482 1.114-.639 1.412-.724 1.75-1.618 1.752-2.574 0-.402-.058-.814-.122-1.23" fill="#9dc0e8"/><path d="M221.747 55.317h11.381v-4.231h-2.768v-10.59c0-5.699-3.572-9.382-9.099-9.382-4.586 0-6.921 2.606-7.577 3.721l-.15-.01-.177-3.157h-8.4V35.9h3.138v15.186h-2.631v4.231h11.381v-4.231h-2.766V41.61c0-3.453 1.869-5.433 5.13-5.433 3.283 0 5.167 1.98 5.167 5.433v9.476h-2.63zm-87.558-16.684h-4.448V27.736h4.356c3.636 0 5.894 2.088 5.894 5.45 0 3.36-2.223 5.447-5.802 5.447zm20.283 2.121c.276-3.577 2.197-5.684 5.192-5.684 3.21 0 5.125 2.036 5.125 5.447v.237zm174.64-.001c.216-3.438 2.203-5.683 5.196-5.683 3.21 0 5.127 2.036 5.127 5.447v.236zm-38.213 10.886c-2.796 0-3.788-1.692-3.788-3.141 0-2.397 2.14-3.42 7.154-3.42h2.035v.237c0 4.345-2.8 6.324-5.401 6.324zm-170.602 3.678h12.626v-4.231h-3.182v-8.221h5.143c7.281 0 11.628-3.619 11.628-9.679 0-6.063-4.347-9.682-11.628-9.682h-14.587v4.232h3.182v23.35h-3.182zm70.576 0h11.382v-4.231h-2.768v-10.59c0-5.699-3.571-9.382-9.099-9.382-4.585 0-6.921 2.606-7.577 3.721l-.15-.01-.177-3.157h-8.4V35.9h3.137v15.186h-2.63v4.231h11.382v-4.231h-2.768V41.61c0-3.453 1.871-5.433 5.131-5.433 3.284 0 5.167 1.98 5.167 5.433v9.476h-2.63zM154.525 44.71h16.802c-.075-8.644-4.232-13.595-11.432-13.595-7.226 0-11.895 4.905-11.895 12.495 0 2.876.939 12.262 13.001 12.262 4.939 0 7.604-1.02 8.667-1.446v-4.473c-1.205.493-3.577 1.41-7.237 1.41-4.678 0-7.715-2.702-7.906-6.653zm88.486 5.41v-4.107h-5.63v8.128c3.499 1.197 6.827 1.731 10.762 1.731 8.013 0 12.426-3.56 12.426-10.024 0-6.547-4.817-8.375-9.332-9.575l-3.204-.839c-2.613-.658-3.938-2.063-3.938-4.176 0-2.029 1.698-4.074 5.494-4.074 1.651 0 3.342.543 4.044.819v3.885h5.622v-7.305c-2.614-1.023-6.276-1.63-9.842-1.63-7.646 0-11.857 3.178-11.857 8.95 0 5.153 2.4 7.904 8.281 9.495l2.759.76c3.86 1.037 5.436 2.433 5.436 4.82 0 2.65-1.89 4.109-5.32 4.109-1.813 0-4.543-.62-5.701-.967zm20.088-14.22h3.274v13.41c0 4.048 2.908 6.562 7.591 6.562 2.297 0 4.468-.544 5.076-.71v-4.115c-.613.117-1.753.316-2.639.316-2.91 0-4.044-1.255-4.044-4.48V35.9h6.458v-4.232h-6.458v-5.166h-5.984v5.166H263.1zm24.241.21c.204-.073 2.199-.763 3.939-.763 3.536 0 5.113 1.495 5.113 4.849v1.392h-3.133c-7.938 0-12.134 2.597-12.134 7.51 0 4.115 3.076 6.774 7.836 6.774 4.966 0 7.22-2.884 7.824-3.835l.174-.002.189 3.283h7.35v-4.231h-2.493V40.37c0-6.142-3.636-9.256-10.808-9.256-4.29 0-8.104 1.949-8.918 2.394v5.758h5.061zm18.057-.21h3.274v13.41c0 4.048 2.909 6.562 7.59 6.562 2.299 0 4.468-.544 5.076-.71v-4.116c-1.108.211-1.994.317-2.638.317-2.91 0-4.043-1.255-4.043-4.48V35.9h6.457v-4.232h-6.457v-5.166h-5.985v5.166h-3.274zm23.776 8.81h16.798c-.074-8.645-4.231-13.595-11.432-13.595-7.226 0-11.894 4.905-11.894 12.495 0 2.876.938 12.262 13.002 12.262 4.937 0 7.602-1.02 8.665-1.446v-4.473c-1.205.493-3.576 1.41-7.236 1.41-4.679 0-7.712-2.702-7.903-6.653" fill="#fff"/></svg>